<mxfile host="app.diagrams.net" modified="2023-05-13T15:19:33.072Z" agent="Mozilla/5.0 (X11; Linux x86_64) AppleWebKit/537.36 (KHTML, like Gecko) Chrome/113.0.0.0 Safari/537.36" version="21.3.0" etag="0Ifgv-B3RRYxtSDor1nd" type="github">
  <diagram name="Page-1" id="7KSEkIcplvTeVnaPe6_e">
    <mxGraphModel>
      <root>
        <mxCell id="0" />
        <mxCell id="1" parent="0" />
      </root>
    </mxGraphModel>
  </diagram>
</mxfile>
